<?xml version="1.0" encoding="UTF-8"?>
<svg id="Labels" xmlns="http://www.w3.org/2000/svg" viewBox="0 0 288 58.15">
  <defs>
    <style>
      .cls-1 {
        stroke-width: 0px;
      }
    </style>
  </defs>
  <path class="cls-1" d="m110.87,21.92c-1.49-.87-3.13-1.31-4.91-1.31h-4.21l-4.53,3.06v-13.98h-5.46v38.77h5.46v-3.06l4.53,3.06h4.21c1.78,0,3.42-.45,4.91-1.34,1.49-.89,2.68-2.08,3.57-3.58.89-1.49,1.34-3.13,1.34-4.91v-8.19c0-1.78-.44-3.43-1.34-4.94-.89-1.51-2.08-2.7-3.57-3.58m-.55,16.71c0,1.2-.43,2.23-1.28,3.08-.86.86-1.88,1.28-3.08,1.28h-2.51l-6.22-4.2v-8.52l6.22-4.2h2.51c1.2,0,2.23.43,3.08,1.28.86.86,1.28,1.88,1.28,3.08v8.19Zm29.76,9.83v-3.28l-4.53,3.28h-4.21c-1.78,0-3.42-.44-4.91-1.31-1.49-.87-2.69-2.07-3.58-3.58-.89-1.51-1.34-3.16-1.34-4.94v-18.02h5.46v18.02c0,1.2.43,2.23,1.28,3.08s1.88,1.28,3.08,1.28h2.51l6.23-4.04v-18.35h5.46v27.85h-5.46Zm34.4-7.7c0,2.29-.86,4.15-2.57,5.57-1.71,1.42-3.95,2.13-6.72,2.13h-4.97c-1.75,0-3.32-.35-4.72-1.04-1.4-.69-2.5-1.66-3.3-2.89-.8-1.24-1.2-2.62-1.2-4.15v-1.09h5.46v1.09c0,.87.34,1.59,1.01,2.16.67.56,1.59.85,2.76.85h4.97c1.24,0,2.18-.24,2.84-.71.66-.47.98-1.11.98-1.91s-.31-1.52-.93-2.05c-.62-.53-1.38-.94-2.29-1.23-.91-.29-2.18-.64-3.82-1.04-2.26-.51-4.09-1.03-5.49-1.56-1.4-.53-2.6-1.35-3.6-2.46-1-1.11-1.5-2.59-1.5-4.45,0-2.22.81-4,2.43-5.35,1.62-1.35,3.72-2.02,6.31-2.02h4.69c1.6,0,3.08.36,4.42,1.07,1.35.71,2.4,1.69,3.17,2.95.76,1.26,1.15,2.63,1.15,4.12v.49h-5.46v-.49c0-.87-.31-1.6-.93-2.18-.62-.58-1.4-.87-2.35-.87h-4.69c-1.09,0-1.91.2-2.46.6-.55.4-.82.97-.82,1.69,0,.76.46,1.36,1.39,1.77.93.42,2.41.87,4.45,1.34,2.4.58,4.39,1.17,5.95,1.77,1.56.6,2.93,1.54,4.09,2.81,1.16,1.28,1.75,2.97,1.75,5.08m22.88,7.7l-7.05-11.19h-5.08v11.19h-5.46V9.69h5.46v22.12h5.08l7.05-11.19h6.44l-8.74,13.92,8.74,13.92h-6.44Zm30.4-27.85l8.76,13.92-8.76,13.92h-6.44l8.74-13.92-8.74-13.92h6.44Zm32.85,10.85c.74-.78,1.33-1.67,1.75-2.68.42-1.01.63-2.07.63-3.19v-1.35c0-1.52-.37-2.93-1.12-4.22-.74-1.29-1.76-2.31-3.05-3.05-1.29-.75-2.7-1.12-4.22-1.12h-2.8c-1.52,0-2.92.37-4.19,1.12-1.27.75-2.29,1.76-3.05,3.05-.76,1.29-1.14,2.69-1.14,4.22v1.35c0,1.12.21,2.17.63,3.17.42.99,1,1.89,1.75,2.7-.87.78-1.56,1.71-2.07,2.79-.51,1.09-.77,2.25-.77,3.49v2.28c0,1.52.38,2.93,1.14,4.22.76,1.29,1.78,2.31,3.05,3.07,1.27.76,2.67,1.14,4.19,1.14h3.73c1.52,0,2.93-.38,4.21-1.14,1.29-.76,2.3-1.79,3.05-3.07.74-1.29,1.12-2.69,1.12-4.22v-2.28c0-1.24-.25-2.41-.74-3.49-.5-1.09-1.2-2.02-2.1-2.79m-12.53-7.22c0-1.02.36-1.9,1.07-2.63.71-.73,1.6-1.09,2.65-1.09h2.8c1.06,0,1.94.36,2.66,1.07.71.71,1.07,1.6,1.07,2.66v1.35c0,1.06-.37,1.95-1.1,2.68-.73.73-1.61,1.09-2.63,1.09h-2.93c-.99-.03-1.84-.41-2.54-1.14-.7-.73-1.05-1.61-1.05-2.63v-1.35Zm10.71,15.79c0,1.06-.37,1.95-1.1,2.68-.73.73-1.61,1.09-2.63,1.09h-3.73c-1.03.03-1.9-.33-2.63-1.07-.73-.74-1.1-1.64-1.1-2.7v-2.28c0-1.02.36-1.9,1.07-2.63.71-.73,1.6-1.09,2.66-1.09h3.73c1.05,0,1.94.36,2.65,1.07.71.72,1.07,1.6,1.07,2.66v2.28Zm29.2-24.17v10.95l-13.97,14.44v7.22h-4.66v-9.08l13.97-14.44v-4.42h-11.18v5.12h-4.66v-9.78h20.5Zm-72.71,32.6h-5.46v-27.85h5.46v27.85Zm-5.46-38.77h5.46v6.01h-5.46v-6.01Z"/>
  <g>
    <polygon class="cls-1" points="5.87 0 0 0 0 44.64 13.96 44.64 16.31 38.77 5.87 38.77 5.87 0"/>
    <path class="cls-1" d="m42.42,31.72c1.68,0,3.25-.36,4.7-1.08.11-.05.22-.11.33-.17.1-.05.19-.11.29-.16,1.63-.94,2.91-2.22,3.85-3.85.94-1.63,1.41-3.4,1.41-5.32v-3.52c0-1.92-.47-3.68-1.41-5.29-.94-1.61-2.22-2.89-3.85-3.85-1.62-.96-3.4-1.44-5.32-1.44h-1.7c-1.41,0-2.74.26-3.99.79-1.25.53-2.39,1.26-3.4,2.2-.98-1.1-2.16-1.97-3.52-2.62-1.37-.65-2.84-.97-4.41-.97h-2.88c-1.92,0-3.69.48-5.32,1.44-1.63.96-2.92,2.24-3.88,3.85-.96,1.61-1.44,3.37-1.44,5.29v4.7c0,1.92.48,3.69,1.44,5.32.96,1.62,2.25,2.91,3.88,3.85,1.62.94,3.4,1.41,5.32,1.41h2.88c1.57,0,3.04-.31,4.41-.94,1.37-.62,2.54-1.51,3.52-2.64.92.89,1.98,1.59,3.17,2.11v3.24c0,1.92.48,3.69,1.44,5.32.72,1.22,1.63,2.25,2.73,3.09.36.27.74.53,1.15.76,1.62.94,3.4,1.41,5.32,1.41v7.64h-5.58l-2.35,5.88h13.8v-19.39h-5.87c-1.33,0-2.46-.46-3.38-1.38-.92-.92-1.38-2.03-1.38-3.32v-2.35h.06Zm-12.34-9.99c.04,1.29-.41,2.4-1.35,3.32-.94.92-2.07,1.38-3.41,1.38h-2.88c-1.29,0-2.4-.45-3.32-1.35-.92-.9-1.38-2.01-1.38-3.35v-4.7c0-1.33.45-2.44,1.35-3.35.9-.9,2.02-1.35,3.35-1.35h2.88c.41,0,.79.05,1.16.13-1.48.42-2.57,1.77-2.57,3.39,0,1.95,1.58,3.52,3.52,3.52,1.05,0,2-.46,2.64-1.2v3.54Zm12.27,4.11h-1.7c-1.33,0-2.46-.46-3.38-1.38-.92-.92-1.38-2.02-1.38-3.32v-3.7c.04-1.25.52-2.32,1.44-3.2.92-.88,2.03-1.32,3.32-1.32h1.7c.22,0,.43.02.63.04-.92.64-1.52,1.69-1.52,2.89,0,1.95,1.58,3.52,3.52,3.52.77,0,1.48-.25,2.06-.67v2.43c0,1.33-.45,2.45-1.35,3.35-.9.9-2.02,1.35-3.35,1.35Z"/>
  </g>
</svg>